# xmcd CD database file
#
# Track frame offsets:
#	150
#	21897
#	35495
#	54582
#	74197
#	90207
#	110952
#	127117
#	146657
#	167987
#	188332
#	206380
#	226780
#	242740
#	258432
#	275252
#
# Disc length: 3852 seconds
#
# Revision: 1
# Processed by: cddbd v1.5PL3 Copyright (c) Steve Scherf et al.
# Submitted via: CDex 1.51
#
DISCID=e60f0a10
DTITLE=Louise Hoffsten - Hits
DYEAR=2003
DGENRE=Rock
TTITLE0=Let The Best Man Win
TTITLE1=All About Numbers
TTITLE2=When The Blue Is Gone
TTITLE3=Sucker
TTITLE4=Bringing Out The Elvis
TTITLE5=Slowburn
TTITLE6=Not The End Of Time
TTITLE7=Warm And Tender Love
TTITLE8=That's What I Get
TTITLE9=Never Gonna Be Your Lady
TTITLE10=Explain It To My Heart
TTITLE11=Wherever You Go
TTITLE12=Little Devil In Me
TTITLE13=To Happy For The Blues
TTITLE14=Fire Is A Good Thing
TTITLE15=Forbidden Fruit
EXTD=2003 BMG Sweden AB YEAR: 2003
EXTT0=
EXTT1=
EXTT2=
EXTT3=
EXTT4=
EXTT5=
EXTT6=
EXTT7=
EXTT8=
EXTT9=
EXTT10=
EXTT11=
EXTT12=
EXTT13=
EXTT14=
EXTT15=
PLAYORDER=
